<svg width="153" height="193" viewBox="0 0 153 193" fill="none" xmlns="http://www.w3.org/2000/svg">
<path d="M136 111.028C136 103.215 134.461 95.4777 131.471 88.2588C128.481 81.0399 124.098 74.4807 118.573 68.9556C113.048 63.4305 106.489 59.0478 99.2697 56.0576C92.0508 53.0675 84.3136 51.5285 76.5 51.5285C68.6863 51.5285 60.9492 53.0675 53.7303 56.0576C46.5115 59.0478 39.9522 63.4305 34.4271 68.9556C28.9021 74.4807 24.5193 81.0399 21.5292 88.2588C18.539 95.4777 17 103.215 17 111.028L20.9352 111.028C20.9352 103.732 22.3724 96.5062 25.1648 89.7647C27.9572 83.0233 32.0501 76.8979 37.2098 71.7382C42.3694 66.5786 48.4948 62.4857 55.2363 59.6933C61.9777 56.9009 69.2031 55.4637 76.5 55.4637C83.7969 55.4637 91.0223 56.9009 97.7637 59.6933C104.505 62.4857 110.631 66.5786 115.79 71.7382C120.95 76.8979 125.043 83.0233 127.835 89.7647C130.628 96.5062 132.065 103.732 132.065 111.028H136Z" fill="#00E371"/>
<path d="M17 111.028C17 103.215 18.539 95.4777 21.5292 88.2588C24.5193 81.0399 28.9021 74.4807 34.4271 68.9556C39.9522 63.4305 46.5115 59.0478 53.7303 56.0576C60.9492 53.0675 68.6864 51.5285 76.5 51.5285L76.5 55.4637C69.2031 55.4637 61.9777 56.9009 55.2363 59.6933C48.4948 62.4857 42.3694 66.5786 37.2098 71.7382C32.0501 76.8979 27.9572 83.0233 25.1648 89.7647C22.3724 96.5062 20.9352 103.732 20.9352 111.028H17Z" fill="#FA003F"/>
<line x1="76.7098" y1="112.806" x2="48.3278" y2="97.9984" stroke="#E5E7EB" stroke-width="2.67416" stroke-linecap="round"/>
<ellipse cx="77.2902" cy="113.228" rx="4.05285" ry="4.12354" transform="rotate(-150 77.2902 113.228)" fill="#E5E7EB"/>
</svg>
