<svg width="16" height="16" viewBox="0 0 16 16" fill="none" xmlns="http://www.w3.org/2000/svg">
<g clip-path="url(#clip0_227_129)">
<path d="M9.99349 11.9929H6.66211" stroke="white" stroke-width="1.33255" stroke-linecap="round" stroke-linejoin="round"/>
<path d="M11.9923 9.32788H6.66211" stroke="white" stroke-width="1.33255" stroke-linecap="round" stroke-linejoin="round"/>
<path d="M2.66458 14.658H13.325C13.6784 14.658 14.0173 14.5176 14.2672 14.2677C14.5171 14.0178 14.6575 13.6789 14.6575 13.3255V2.66507C14.6575 2.31166 14.5171 1.97272 14.2672 1.72281C14.0173 1.47291 13.6784 1.33252 13.325 1.33252H5.32968C4.97627 1.33252 4.63733 1.47291 4.38743 1.72281C4.13753 1.97272 3.99713 2.31166 3.99713 2.66507V13.3255C3.99713 13.6789 3.85674 14.0178 3.60684 14.2677C3.35694 14.5176 3.018 14.658 2.66458 14.658ZM2.66458 14.658C2.31117 14.658 1.97223 14.5176 1.72233 14.2677C1.47242 14.0178 1.33203 13.6789 1.33203 13.3255V7.329C1.33203 6.97558 1.47242 6.63664 1.72233 6.38674C1.97223 6.13684 2.31117 5.99645 2.66458 5.99645H3.99713" stroke="white" stroke-width="1.33255" stroke-linecap="round" stroke-linejoin="round"/>
<path d="M11.326 3.99768H7.32838C6.96041 3.99768 6.66211 4.29598 6.66211 4.66396V5.99651C6.66211 6.36448 6.96041 6.66278 7.32838 6.66278H11.326C11.694 6.66278 11.9923 6.36448 11.9923 5.99651V4.66396C11.9923 4.29598 11.694 3.99768 11.326 3.99768Z" stroke="white" stroke-width="1.33255" stroke-linecap="round" stroke-linejoin="round"/>
</g>
<defs>
<clipPath id="clip0_227_129">
<rect width="15.9906" height="15.9906" fill="white"/>
</clipPath>
</defs>
</svg>
