<svg width="16" height="16" viewBox="0 0 16 16" fill="none" xmlns="http://www.w3.org/2000/svg">
<g clip-path="url(#clip0_227_82)">
<path d="M7.99452 5.33017C11.3063 5.33017 13.991 4.43527 13.991 3.33135C13.991 2.22742 11.3063 1.33252 7.99452 1.33252C4.68276 1.33252 1.99805 2.22742 1.99805 3.33135C1.99805 4.43527 4.68276 5.33017 7.99452 5.33017Z" stroke="white" stroke-width="1.33255" stroke-linecap="round" stroke-linejoin="round"/>
<path d="M1.99805 3.33142V12.6593C1.99805 13.1894 2.62982 13.6978 3.75437 14.0727C4.87893 14.4475 6.40416 14.6581 7.99452 14.6581C9.58489 14.6581 11.1101 14.4475 12.2347 14.0727C13.3592 13.6978 13.991 13.1894 13.991 12.6593V3.33142" stroke="white" stroke-width="1.33255" stroke-linecap="round" stroke-linejoin="round"/>
<path d="M1.99805 7.99536C1.99805 8.52548 2.62982 9.03389 3.75437 9.40874C4.87893 9.7836 6.40416 9.99419 7.99452 9.99419C9.58489 9.99419 11.1101 9.7836 12.2347 9.40874C13.3592 9.03389 13.991 8.52548 13.991 7.99536" stroke="white" stroke-width="1.33255" stroke-linecap="round" stroke-linejoin="round"/>
</g>
<defs>
<clipPath id="clip0_227_82">
<rect width="15.9906" height="15.9906" fill="white"/>
</clipPath>
</defs>
</svg>
