<svg width="16" height="16" viewBox="0 0 16 16" fill="none" xmlns="http://www.w3.org/2000/svg">
<g clip-path="url(#clip0_227_72)">
<path d="M7.87695 1.31287V14.4421" stroke="white" stroke-width="1.31292" stroke-linecap="round" stroke-linejoin="round"/>
<path d="M11.1605 3.28235H6.23706C5.6277 3.28235 5.04329 3.52442 4.61241 3.9553C4.18152 4.38619 3.93945 4.9706 3.93945 5.57996C3.93945 6.18932 4.18152 6.77373 4.61241 7.20462C5.04329 7.6355 5.6277 7.87757 6.23706 7.87757H9.51936C10.1287 7.87757 10.7131 8.11964 11.144 8.55052C11.5749 8.98141 11.817 9.56582 11.817 10.1752C11.817 10.7845 11.5749 11.369 11.144 11.7998C10.7131 12.2307 10.1287 12.4728 9.51936 12.4728H3.93945" stroke="white" stroke-width="1.31292" stroke-linecap="round" stroke-linejoin="round"/>
</g>
<defs>
<clipPath id="clip0_227_72">
<rect width="15.755" height="15.755" fill="white"/>
</clipPath>
</defs>
</svg>
