<svg width="16" height="16" viewBox="0 0 16 16" fill="none" xmlns="http://www.w3.org/2000/svg">
<g clip-path="url(#clip0_227_51)">
<path d="M6.8418 13.9918C6.95876 14.1944 7.12697 14.3626 7.32954 14.4795C7.53211 14.5965 7.76189 14.658 7.99579 14.658C8.22969 14.658 8.45947 14.5965 8.66203 14.4795C8.8646 14.3626 9.03281 14.1944 9.14977 13.9918" stroke="white" stroke-width="1.33255" stroke-linecap="round" stroke-linejoin="round"/>
<path d="M2.17408 10.2113C2.08704 10.3067 2.0296 10.4253 2.00874 10.5528C1.98789 10.6802 2.00452 10.811 2.05662 10.9291C2.10871 11.0473 2.19402 11.1478 2.30217 11.2184C2.41032 11.2889 2.53665 11.3266 2.66579 11.3266H13.3262C13.4553 11.3267 13.5817 11.2892 13.6899 11.2188C13.7981 11.1483 13.8835 11.048 13.9358 10.9299C13.988 10.8118 14.0048 10.6811 13.9841 10.5536C13.9634 10.4262 13.9061 10.3075 13.8192 10.212C12.9331 9.29851 11.9936 8.32774 11.9936 5.33017C11.9936 4.26993 11.5725 3.25311 10.8228 2.5034C10.0731 1.7537 9.05623 1.33252 7.99599 1.33252C6.93575 1.33252 5.91893 1.7537 5.16922 2.5034C4.41952 3.25311 3.99834 4.26993 3.99834 5.33017C3.99834 8.32774 3.05822 9.29851 2.17408 10.2113Z" stroke="white" stroke-width="1.33255" stroke-linecap="round" stroke-linejoin="round"/>
</g>
<defs>
<clipPath id="clip0_227_51">
<rect width="15.9906" height="15.9906" fill="white"/>
</clipPath>
</defs>
</svg>
