<svg width="16" height="16" viewBox="0 0 16 16" fill="none" xmlns="http://www.w3.org/2000/svg">
<g clip-path="url(#clip0_227_151)">
<path d="M14.2723 7.2771C14.3915 7.22448 14.4928 7.13803 14.5634 7.02845C14.634 6.91887 14.6709 6.79098 14.6696 6.66062C14.6682 6.53026 14.6287 6.40316 14.5558 6.29506C14.4829 6.18697 14.3799 6.10262 14.2596 6.05248L8.54896 3.45134C8.37535 3.37216 8.18677 3.33118 7.99595 3.33118C7.80514 3.33118 7.61655 3.37216 7.44294 3.45134L1.73296 6.04982C1.61435 6.10177 1.51344 6.18716 1.44258 6.29555C1.37172 6.40394 1.33398 6.53063 1.33398 6.66013C1.33398 6.78962 1.37172 6.91631 1.44258 7.0247C1.51344 7.13309 1.61435 7.21848 1.73296 7.27043L7.44294 9.87424C7.61655 9.95342 7.80514 9.99441 7.99595 9.99441C8.18677 9.99441 8.37535 9.95342 8.54896 9.87424L14.2723 7.2771Z" stroke="white" stroke-width="1.33255" stroke-linecap="round" stroke-linejoin="round"/>
<path d="M14.6582 6.66272V10.6604" stroke="white" stroke-width="1.33255" stroke-linecap="round" stroke-linejoin="round"/>
<path d="M3.99805 8.32849V10.6605C3.99805 11.1906 4.41923 11.699 5.16893 12.0738C5.91864 12.4487 6.93546 12.6593 7.9957 12.6593C9.05594 12.6593 10.0728 12.4487 10.8225 12.0738C11.5722 11.699 11.9934 11.1906 11.9934 10.6605V8.32849" stroke="white" stroke-width="1.33255" stroke-linecap="round" stroke-linejoin="round"/>
</g>
<defs>
<clipPath id="clip0_227_151">
<rect width="15.9906" height="15.9906" fill="white"/>
</clipPath>
</defs>
</svg>
