<svg width="16" height="16" viewBox="0 0 16 16" fill="none" xmlns="http://www.w3.org/2000/svg">
<g clip-path="url(#clip0_227_20)">
<path d="M14.0007 8.00001C14.3687 8.00001 14.6707 7.70067 14.634 7.33467C14.4803 5.80412 13.802 4.37381 12.7142 3.28622C11.6264 2.19864 10.1959 1.5207 8.66533 1.36734C8.29867 1.33067 8 1.63267 8 2.00067V7.33401C8 7.51082 8.07024 7.68039 8.19526 7.80541C8.32029 7.93044 8.48986 8.00067 8.66667 8.00067L14.0007 8.00001Z" stroke="white" stroke-width="1.33333" stroke-linecap="round" stroke-linejoin="round"/>
<path d="M14.1409 10.5933C13.7168 11.5963 13.0534 12.4801 12.2088 13.1675C11.3642 13.8549 10.3641 14.3249 9.29588 14.5365C8.22766 14.7481 7.12387 14.6948 6.08102 14.3812C5.03817 14.0676 4.088 13.5034 3.3136 12.7378C2.5392 11.9722 1.96413 11.0285 1.63868 9.98929C1.31322 8.95009 1.24729 7.84698 1.44665 6.77641C1.64601 5.70584 2.10458 4.70041 2.78228 3.84801C3.45998 2.99561 4.33617 2.3222 5.33425 1.88666" stroke="white" stroke-width="1.33333" stroke-linecap="round" stroke-linejoin="round"/>
</g>
<defs>
<clipPath id="clip0_227_20">
<rect width="16" height="16" fill="white"/>
</clipPath>
</defs>
</svg>
