<svg width="16" height="16" viewBox="0 0 16 16" fill="none" xmlns="http://www.w3.org/2000/svg">
<g clip-path="url(#clip0_227_120)">
<path d="M13.3264 8.6616C13.3264 11.993 10.9945 13.6587 8.22275 14.6248C8.07761 14.674 7.91995 14.6716 7.77635 14.6181C4.99798 13.6587 2.66602 11.993 2.66602 8.6616V3.99768C2.66602 3.82097 2.73621 3.6515 2.86116 3.52655C2.98611 3.4016 3.15558 3.3314 3.33229 3.3314C4.66484 3.3314 6.33053 2.53187 7.48985 1.51913C7.631 1.39854 7.81056 1.33228 7.99622 1.33228C8.18187 1.33228 8.36143 1.39854 8.50259 1.51913C9.66857 2.53853 11.3276 3.3314 12.6601 3.3314C12.8369 3.3314 13.0063 3.4016 13.1313 3.52655C13.2562 3.6515 13.3264 3.82097 13.3264 3.99768V8.6616Z" stroke="white" stroke-width="1.33255" stroke-linecap="round" stroke-linejoin="round"/>
</g>
<defs>
<clipPath id="clip0_227_120">
<rect width="15.9906" height="15.9906" fill="white"/>
</clipPath>
</defs>
</svg>
