<svg width="16" height="16" viewBox="0 0 16 16" fill="none" xmlns="http://www.w3.org/2000/svg">
<g clip-path="url(#clip0_227_42)">
<path d="M14.6575 7.99527H13.0052C12.714 7.99465 12.4306 8.08942 12.1984 8.26509C11.9662 8.44076 11.7979 8.68766 11.7193 8.96803L10.1535 14.5381C10.1434 14.5727 10.1224 14.6031 10.0936 14.6247C10.0647 14.6463 10.0297 14.658 9.99361 14.658C9.95757 14.658 9.9225 14.6463 9.89367 14.6247C9.86484 14.6031 9.8438 14.5727 9.8337 14.5381L6.15586 1.45245C6.14577 1.41785 6.12473 1.38746 6.0959 1.36583C6.06707 1.34421 6.032 1.33252 5.99596 1.33252C5.95992 1.33252 5.92485 1.34421 5.89602 1.36583C5.86718 1.38746 5.84614 1.41785 5.83605 1.45245L4.27031 7.02251C4.19199 7.30178 4.0247 7.54788 3.79383 7.72344C3.56295 7.899 3.2811 7.99444 2.99106 7.99527H1.33203" stroke="white" stroke-width="1.33255" stroke-linecap="round" stroke-linejoin="round"/>
</g>
<defs>
<clipPath id="clip0_227_42">
<rect width="15.9906" height="15.9906" fill="white"/>
</clipPath>
</defs>
</svg>
