<svg width="16" height="16" viewBox="0 0 16 16" fill="none" xmlns="http://www.w3.org/2000/svg">
<g clip-path="url(#clip0_227_93)">
<path d="M5.33008 1.33252V3.99762" stroke="white" stroke-width="1.33255" stroke-linecap="round" stroke-linejoin="round"/>
<path d="M10.6602 1.33252V3.99762" stroke="white" stroke-width="1.33255" stroke-linecap="round" stroke-linejoin="round"/>
<path d="M12.6585 2.66516H3.3306C2.59465 2.66516 1.99805 3.26176 1.99805 3.99771V13.3256C1.99805 14.0615 2.59465 14.6581 3.3306 14.6581H12.6585C13.3944 14.6581 13.991 14.0615 13.991 13.3256V3.99771C13.991 3.26176 13.3944 2.66516 12.6585 2.66516Z" stroke="white" stroke-width="1.33255" stroke-linecap="round" stroke-linejoin="round"/>
<path d="M1.99805 6.66272H13.991" stroke="white" stroke-width="1.33255" stroke-linecap="round" stroke-linejoin="round"/>
<path d="M5.33008 9.32788H5.33674" stroke="white" stroke-width="1.33255" stroke-linecap="round" stroke-linejoin="round"/>
<path d="M7.99609 9.32788H8.00276" stroke="white" stroke-width="1.33255" stroke-linecap="round" stroke-linejoin="round"/>
<path d="M10.6602 9.32788H10.6668" stroke="white" stroke-width="1.33255" stroke-linecap="round" stroke-linejoin="round"/>
<path d="M5.33008 11.9929H5.33674" stroke="white" stroke-width="1.33255" stroke-linecap="round" stroke-linejoin="round"/>
<path d="M7.99609 11.9929H8.00276" stroke="white" stroke-width="1.33255" stroke-linecap="round" stroke-linejoin="round"/>
<path d="M10.6602 11.9929H10.6668" stroke="white" stroke-width="1.33255" stroke-linecap="round" stroke-linejoin="round"/>
</g>
<defs>
<clipPath id="clip0_227_93">
<rect width="15.9906" height="15.9906" fill="white"/>
</clipPath>
</defs>
</svg>
