<svg width="20" height="20" viewBox="0 0 20 20" fill="none" xmlns="http://www.w3.org/2000/svg">
<path d="M9.99998 1.66699C10.884 1.66699 11.7319 2.01818 12.357 2.6433C12.9821 3.26842 13.3333 4.11627 13.3333 5.00033H15.0291C15.461 5.00027 15.876 5.16782 16.1867 5.46767C16.4974 5.76752 16.6797 6.17628 16.695 6.60783L17.0516 16.6078C17.0596 16.8315 17.0224 17.0545 16.9423 17.2634C16.8622 17.4724 16.7409 17.6631 16.5855 17.8242C16.4301 17.9852 16.2439 18.1134 16.0379 18.2009C15.8319 18.2884 15.6104 18.3336 15.3867 18.3337H4.61332C4.38952 18.3336 4.16803 18.2884 3.96206 18.2009C3.75609 18.1134 3.56986 17.9852 3.41447 17.8242C3.25909 17.6631 3.13773 17.4724 3.05764 17.2634C2.97755 17.0545 2.94037 16.8315 2.94832 16.6078L3.30498 6.60783C3.32031 6.17628 3.50254 5.76752 3.81327 5.46767C4.12401 5.16782 4.539 5.00027 4.97082 5.00033H6.66665C6.66665 4.11627 7.01784 3.26842 7.64296 2.6433C8.26808 2.01818 9.11593 1.66699 9.99998 1.66699ZM8.33332 6.66699H6.66665V7.50033C6.66688 7.71273 6.74822 7.91702 6.89402 8.07147C7.03983 8.22591 7.23911 8.31886 7.45115 8.3313C7.66318 8.34375 7.87197 8.27476 8.03484 8.13844C8.19772 8.00211 8.3024 7.80874 8.32748 7.59783L8.33332 7.50033V6.66699ZM13.3333 6.66699H11.6666V7.50033C11.6666 7.72134 11.7544 7.9333 11.9107 8.08958C12.067 8.24586 12.279 8.33366 12.5 8.33366C12.721 8.33366 12.933 8.24586 13.0892 8.08958C13.2455 7.9333 13.3333 7.72134 13.3333 7.50033V6.66699ZM9.99998 3.33366C9.5795 3.33353 9.17451 3.49233 8.86619 3.77824C8.55787 4.06415 8.36902 4.45603 8.33748 4.87533L8.33332 5.00033H11.6666C11.6666 4.5583 11.4911 4.13437 11.1785 3.82181C10.8659 3.50925 10.442 3.33366 9.99998 3.33366Z" fill="#05DF72"/>
</svg>
