<svg width="16" height="16" viewBox="0 0 16 16" fill="none" xmlns="http://www.w3.org/2000/svg">
<g clip-path="url(#clip0_227_141)">
<path d="M7.99609 4.66394V13.9918" stroke="white" stroke-width="1.33255" stroke-linecap="round" stroke-linejoin="round"/>
<path d="M1.99831 11.9929C1.8216 11.9929 1.65213 11.9227 1.52718 11.7978C1.40223 11.6728 1.33203 11.5033 1.33203 11.3266V2.66505C1.33203 2.48835 1.40223 2.31888 1.52718 2.19393C1.65213 2.06898 1.8216 1.99878 1.99831 1.99878H5.32968C6.03651 1.99878 6.71439 2.27957 7.21419 2.77937C7.714 3.27917 7.99478 3.95705 7.99478 4.66388C7.99478 3.95705 8.27557 3.27917 8.77537 2.77937C9.27518 2.27957 9.95306 1.99878 10.6599 1.99878H13.9913C14.168 1.99878 14.3374 2.06898 14.4624 2.19393C14.5873 2.31888 14.6575 2.48835 14.6575 2.66505V11.3266C14.6575 11.5033 14.5873 11.6728 14.4624 11.7978C14.3374 11.9227 14.168 11.9929 13.9913 11.9929H9.99361C9.46349 11.9929 8.95508 12.2035 8.58023 12.5784C8.20537 12.9532 7.99478 13.4616 7.99478 13.9917C7.99478 13.4616 7.78419 12.9532 7.40934 12.5784C7.03449 12.2035 6.52608 11.9929 5.99596 11.9929H1.99831Z" stroke="white" stroke-width="1.33255" stroke-linecap="round" stroke-linejoin="round"/>
</g>
<defs>
<clipPath id="clip0_227_141">
<rect width="15.9906" height="15.9906" fill="white"/>
</clipPath>
</defs>
</svg>
