<svg width="111" height="102" viewBox="0 0 111 102" fill="none" xmlns="http://www.w3.org/2000/svg">
<path d="M92.2965 54.9474C92.2965 48.9064 91.1813 42.9235 89.0135 37.3342L79.0215 41.6669C80.6561 45.8813 81.4969 50.3925 81.4969 54.9474H92.2965Z" fill="#05871A"/>
<path d="M89.1685 37.7416C87.0507 32.1309 83.9176 27.0113 79.9448 22.6698L72.1835 30.61C75.179 33.8835 77.5414 37.7438 79.1382 41.9743L89.1685 37.7416Z" fill="#25B73C"/>
<path d="M80.043 22.7749C75.3532 17.6173 69.5994 13.6757 63.2308 11.258L59.5814 22.0053C64.3833 23.8283 68.7218 26.8002 72.2579 30.6891L80.043 22.7749Z" fill="#2FE24B"/>
<path d="M63.1416 11.2247C53.685 7.65866 43.358 7.62763 33.8824 11.1367L37.4522 21.9138C44.5969 19.268 52.3835 19.2914 59.5139 21.9801L63.1416 11.2247Z" fill="#FFFF00"/>
<path d="M7.58637 37.8348C5.534 43.3066 4.4846 49.1411 4.49411 55.0275L15.2937 55.008C15.2865 50.5696 16.0778 46.1703 17.6253 42.0446L7.58637 37.8348Z" fill="#D30000"/>
<path d="M16.0506 23.5614C12.2864 27.8983 9.33668 32.9525 7.35866 38.4548L17.4536 42.5121C18.9451 38.3633 21.1691 34.5523 24.0074 31.2823L16.0506 23.5614Z" fill="#FF0000"/>
<path d="M16.0506 23.5614C12.2864 27.8983 9.33668 32.9525 7.35866 38.4548L17.4536 42.5121C18.9451 38.3633 21.1691 34.5523 24.0074 31.2823L16.0506 23.5614Z" fill="#FF0000"/>
<line x1="57.1137" y1="55.0495" x2="34.1002" y2="43.0424" stroke="#E5E7EB" stroke-width="2" stroke-linecap="round"/>
<ellipse cx="57.4754" cy="55.4205" rx="3.26659" ry="3.32357" transform="rotate(-150 57.4754 55.4205)" fill="#E5E7EB"/>
<path d="M33.8755 11.1399C26.9149 13.7189 20.681 18.1105 15.7493 23.9094L23.7797 31.5447C27.4982 27.1723 32.1986 23.861 37.447 21.9164L33.8755 11.1399Z" fill="#FF0000"/>
<path d="M33.8755 11.1399C26.9149 13.7189 20.681 18.1105 15.7493 23.9094L23.7797 31.5447C27.4982 27.1723 32.1986 23.861 37.447 21.9164L33.8755 11.1399Z" fill="#FF8C8C"/>
</svg>
